<svg width="64" height="64" viewBox="0 0 64 64" fill="none" xmlns="http://www.w3.org/2000/svg">
<g clip-path="url(#clip0_80_347)">
<path d="M21.0041 22.52C21.8041 22.52 22.6641 22.65 23.5841 22.91C24.5241 23.17 25.3841 23.53 26.1641 23.99H26.1941L26.0741 22.73H28.3841V29.72H26.4341C25.8941 26.4 24.2141 24.72 21.3941 24.68C20.0541 24.68 18.9141 25.08 17.9741 25.88C17.0541 26.66 16.3641 27.7 15.9041 29C15.4441 30.3 15.2141 31.7 15.2141 33.2C15.2141 34.92 15.4641 36.45 15.9641 37.79C16.4641 39.13 17.1841 40.18 18.1241 40.94C19.0641 41.68 20.1941 42.05 21.5141 42.05C22.7941 42.05 24.0441 41.72 25.2641 41.06C26.5041 40.4 27.5441 39.5 28.3841 38.36L29.8241 39.68C28.5041 41.5 27.0541 42.76 25.4741 43.46C23.8941 44.14 22.3341 44.48 20.7941 44.48C18.7741 44.48 16.9841 44.01 15.4241 43.07C13.8641 42.13 12.6541 40.85 11.7941 39.23C10.9341 37.59 10.5041 35.78 10.5041 33.8C10.5041 31.9 10.9041 30.09 11.7041 28.37C12.5241 26.63 13.7241 25.22 15.3041 24.14C16.8841 23.06 18.7841 22.52 21.0041 22.52ZM38.3284 29.93C39.7084 29.93 40.9484 30.22 42.0484 30.8C43.1684 31.36 44.0384 32.17 44.6584 33.23C45.2984 34.29 45.6184 35.53 45.6184 36.95C45.6184 38.45 45.3084 39.77 44.6884 40.91C44.0884 42.03 43.2384 42.9 42.1384 43.52C41.0584 44.14 39.8184 44.45 38.4184 44.45C37.0184 44.45 35.7584 44.17 34.6384 43.61C33.5184 43.03 32.6384 42.22 31.9984 41.18C31.3584 40.12 31.0384 38.89 31.0384 37.49C31.0384 36.01 31.3684 34.7 32.0284 33.56C32.6884 32.42 33.5684 31.53 34.6684 30.89C35.7884 30.25 37.0084 29.93 38.3284 29.93ZM38.3284 31.85C37.2684 31.85 36.4984 32.32 36.0184 33.26C35.5384 34.2 35.2984 35.36 35.2984 36.74C35.2984 38.32 35.5584 39.68 36.0784 40.82C36.5984 41.94 37.3984 42.5 38.4784 42.5C40.3784 42.5 41.3284 40.87 41.3284 37.61C41.3284 36.05 41.0884 34.7 40.6084 33.56C40.1284 32.42 39.3684 31.85 38.3284 31.85ZM50.0539 39.8C50.6739 39.8 51.1839 40.03 51.5839 40.49C52.0039 40.95 52.2139 41.5 52.2139 42.14C52.2139 42.8 52.0139 43.36 51.6139 43.82C51.2339 44.26 50.7239 44.48 50.0839 44.48C49.4439 44.48 48.9139 44.26 48.4939 43.82C48.0739 43.36 47.8639 42.8 47.8639 42.14C47.8639 41.5 48.0839 40.95 48.5239 40.49C48.9639 40.03 49.4739 39.8 50.0539 39.8Z" fill="white"/>
</g>
<defs>
<clipPath id="clip0_80_347">
<rect width="64" height="64" fill="white"/>
</clipPath>
</defs>
</svg>
