<svg width="64" height="64" viewBox="0 0 64 64" fill="none" xmlns="http://www.w3.org/2000/svg">
<path d="M32.1768 22.7637V50.3564L13.834 44.2158L13.7998 44.2041V20.0703L32.1768 22.7637ZM53.9922 42.9512L53.959 42.9629L33.4766 50.1621V22.6807L53.9922 16.2744V42.9512ZM50.5801 30.7109C50.4049 30.1873 49.8402 29.9114 49.3193 30.0947L38.376 33.9453C37.855 34.1286 37.5739 34.7028 37.749 35.2266L38.126 36.3525C38.3012 36.8759 38.865 37.1517 39.3857 36.9688L50.3301 33.1172C50.851 32.9338 51.1311 32.3607 50.9561 31.8369L50.5801 30.7109ZM31.2051 13.001L52.5137 15.374L32.7734 21.5371L13.9785 18.7822L31.1836 13.0029L31.1943 13L31.2051 13.001ZM12.8408 19.2734C12.8162 19.4416 12.8603 19.6033 12.9492 19.7334L11.9902 19.5498L11.8037 19.5137L11.9844 19.4531L12.8701 19.1553C12.8571 19.193 12.8468 19.2325 12.8408 19.2734Z" fill="white"/>
</svg>
