<svg width="64" height="64" viewBox="0 0 64 64" fill="none" xmlns="http://www.w3.org/2000/svg">
<path d="M26.0801 11.0338C27.9804 10.8496 29.6319 11.4355 30.0547 12.3785L30.0918 12.3717L38.0234 51.9732L33.3037 52.9186L30.3477 38.1627H22.5195L19.7285 52.8189L15 51.9186L22.5176 12.4498L22.752 12.4938C23.3323 11.7616 24.5854 11.1788 26.0801 11.0338ZM22.9775 35.7564H29.8662L26.335 18.1285L22.9775 35.7564ZM45.1475 25.9947C45.3129 25.9947 45.448 26.129 45.4482 26.2945L45.4521 29.5445H48.7021C48.8675 29.5448 49.0019 29.6789 49.002 29.8443V31.7789C49.0018 31.9442 48.8675 32.0784 48.7021 32.0787H45.4541L45.458 35.3258C45.458 35.4911 45.3235 35.6251 45.1582 35.6256L43.2227 35.6275C43.0571 35.6275 42.923 35.4933 42.9229 35.3277L42.9189 32.0787H39.6689C39.5034 32.0787 39.3693 31.9444 39.3691 31.7789V29.8443C39.3692 29.6787 39.5033 29.5446 39.6689 29.5445H42.917L42.9131 26.2975C42.913 26.1318 43.0473 25.9969 43.2129 25.9967L45.1475 25.9947Z" fill="white"/>
</svg>
