<svg width="64" height="64" viewBox="0 0 64 64" fill="none" xmlns="http://www.w3.org/2000/svg">
<path d="M37.3724 41.2778C37.9941 41.2778 38.441 41.4369 38.712 41.757C38.999 42.0772 39.1425 42.4224 39.1425 42.7906C39.1423 43.8631 38.5282 44.3989 37.3007 44.3989C36.5042 44.3989 35.9943 44.2154 35.7708 43.8478C35.6592 43.6556 35.5784 43.4785 35.5306 43.3184C35.4988 43.1582 35.4839 42.9254 35.4839 42.6214C35.4841 42.3175 35.6425 42.0214 35.961 41.7335C36.2958 41.4293 36.7666 41.2778 37.3724 41.2778Z" fill="white"/>
<path fill-rule="evenodd" clip-rule="evenodd" d="M52 51.2845C52 52.2319 51.2352 53 50.2917 53H12.7083C11.7648 53 11 52.2319 11 51.2845V24.9468H52V51.2845ZM40.8158 30.4218C37.8186 30.422 35.4516 31.4467 33.7138 33.496C31.9918 35.5455 31.1296 38.099 31.1296 41.1572C31.1297 43.2706 31.6573 44.9991 32.7095 46.344C33.7617 47.6728 35.3233 48.3374 37.3958 48.3376C39.0377 48.3376 40.4336 47.7942 41.5815 46.7058C42.7453 45.6172 43.3281 44.2635 43.3282 42.6465C43.3282 41.3336 42.7619 40.1557 41.6299 39.115C40.5138 38.0583 39.166 37.5301 37.5876 37.5301C36.9977 37.5302 36.4074 37.6667 35.8175 37.9389L35.9377 37.6022C36.0972 37.0739 36.5275 36.481 37.2289 35.8247C37.5796 35.5046 38.0581 35.2329 38.6637 35.0088C39.2854 34.7846 39.9235 34.6721 40.5772 34.672C41.2309 34.672 41.6942 34.624 41.9652 34.528C42.1719 34.464 42.3309 34.3601 42.4423 34.2164C42.5539 34.0723 42.6496 33.8636 42.7293 33.5915C42.809 33.3194 42.8494 32.9515 42.8494 32.4874C42.8494 32.0231 42.8016 31.6374 42.7059 31.3331C42.6102 31.0293 42.4188 30.8053 42.132 30.6613C41.861 30.5012 41.4216 30.4218 40.8158 30.4218ZM27.3459 30.3966C26.8677 30.3967 26.4208 30.6053 26.0063 31.0215L25.9346 31.0701L22.0124 34.6251C21.439 35.1371 21.1518 35.6088 21.1516 36.0408C21.1516 36.473 21.3983 36.97 21.8923 37.5301C22.4025 38.0905 22.8897 38.3711 23.3521 38.3711C23.8142 38.3711 24.3721 38.1232 25.0254 37.6273L25.3373 37.3375V45.9117C25.3373 46.296 25.3447 46.5932 25.3607 46.8013C25.3926 46.9934 25.4734 47.2096 25.6009 47.4497C25.8402 47.8656 26.4532 48.0745 27.441 48.0746C28.4613 48.0746 29.0845 47.8584 29.3079 47.4262C29.4354 47.1861 29.5071 46.9774 29.5231 46.8013C29.555 46.6092 29.5698 46.3286 29.5698 45.9603V32.5829C29.5698 32.0065 29.5311 31.5819 29.4513 31.3097C29.3716 31.0695 29.2595 30.9015 29.116 30.8054C28.9725 30.6933 28.7648 30.5973 28.4937 30.5173C28.2227 30.4373 27.84 30.3966 27.3459 30.3966Z" fill="white"/>
<path d="M17.1493 16.3156H21.25V18.4734H23.3003V16.3156H27.3993V18.4734H29.4497V16.3156H33.5503V18.4734H35.6007V16.3156H39.6997V18.4734H41.75V16.3156H45.8507V12H47.8993V16.3156H50.2917C51.2348 16.3156 51.9995 17.0841 52 18.0311V22.789H11V18.0311C11.0005 17.0841 11.7652 16.3156 12.7083 16.3156H15.1007V12H17.1493V16.3156Z" fill="white"/>
</svg>
