<svg width="64" height="64" viewBox="0 0 64 64" fill="none" xmlns="http://www.w3.org/2000/svg">
<path d="M44.4165 20C47.5917 20.0001 50.1663 22.5738 50.1665 25.749C50.1664 27.0181 49.7535 28.1906 49.0571 29.1416L52.852 38.167C53.7077 40.2033 52.7504 42.5481 50.7143 43.4043L49.6088 43.8691C47.5725 44.7249 45.2277 43.7676 44.3715 41.7314L41.7534 35.5039C41.2014 35.8788 40.5344 36.0986 39.8169 36.0986C38.3154 36.0983 37.0386 35.1381 36.5649 33.7988H26.9711C26.4974 35.1383 25.2199 36.0985 23.7182 36.0986C22.8672 36.0985 22.0883 35.7893 21.4868 35.2783L18.8003 41.7236C17.95 43.7623 15.6076 44.7259 13.5688 43.876L12.4614 43.4141C10.4228 42.5637 9.45899 40.2214 10.309 38.1826L14.2309 28.7764C13.6852 27.8971 13.3696 26.8599 13.3696 25.749C13.3697 22.5739 15.9435 20.0002 19.1186 20C20.9995 20.0001 22.6693 20.9034 23.7182 22.2998H39.8169C40.8657 20.9034 42.5357 20.0002 44.4165 20ZM23.9926 30.4873C22.752 30.4875 21.7465 31.4937 21.7465 32.7344C21.7466 33.975 22.7521 34.9812 23.9926 34.9814C25.2334 34.9814 26.2396 33.9751 26.2397 32.7344C26.2397 31.4936 25.2334 30.4873 23.9926 30.4873ZM39.437 30.4873C38.1962 30.4874 37.1899 31.4936 37.1899 32.7344C37.19 33.9751 38.1963 34.9813 39.437 34.9814C40.6777 34.9814 41.684 33.9751 41.684 32.7344C41.684 31.4936 40.6778 30.4873 39.437 30.4873ZM43.1606 27.2637C42.6278 27.2639 42.1959 27.6957 42.1958 28.2285C42.1958 28.7614 42.6278 29.1941 43.1606 29.1943C43.6936 29.1943 44.1263 28.7615 44.1264 28.2285C44.1262 27.6956 43.6936 27.2637 43.1606 27.2637ZM19.0795 25.4668C18.8319 25.4694 18.6331 25.6722 18.6352 25.9199L18.643 26.8145H17.7485C17.5007 26.8147 17.2994 27.0158 17.2993 27.2637C17.2994 27.5115 17.5007 27.7126 17.7485 27.7129H18.6518L18.6596 28.6162C18.6622 28.8638 18.8651 29.0625 19.1128 29.0605C19.3608 29.0583 19.5602 28.8554 19.5581 28.6074L19.5503 27.7129H20.4438C20.6919 27.7129 20.8929 27.5117 20.893 27.2637C20.8929 27.0157 20.6918 26.8145 20.4438 26.8145H19.5415L19.5336 25.9121C19.5314 25.664 19.3277 25.4645 19.0795 25.4668ZM26.9174 26.9971C26.4212 26.9971 26.0192 27.3993 26.019 27.8955C26.019 28.3918 26.4211 28.7949 26.9174 28.7949H35.9038C36.4001 28.7949 36.8032 28.3918 36.8032 27.8955C36.803 27.3993 36.4 26.9971 35.9038 26.9971H26.9174ZM47.0219 25.333C46.4891 25.3332 46.0564 25.7651 46.0561 26.2979C46.0562 26.8308 46.489 27.2635 47.0219 27.2637C47.5549 27.2636 47.9867 26.8308 47.9868 26.2979C47.9865 25.765 47.5548 25.3331 47.0219 25.333ZM43.1606 23.4023C42.6277 23.4026 42.1958 23.8352 42.1958 24.3682C42.196 24.9009 42.6279 25.3328 43.1606 25.333C43.6935 25.333 44.1262 24.901 44.1264 24.3682C44.1264 23.8351 43.6937 23.4023 43.1606 23.4023Z" fill="white"/>
</svg>
