<svg width="64" height="64" viewBox="0 0 64 64" fill="none" xmlns="http://www.w3.org/2000/svg">
<path d="M33.3839 15.0001C34.4884 14.9911 35.3915 15.8789 35.4005 16.9835L35.4845 27.4786L45.9815 27.3858C47.086 27.3761 47.9892 28.2638 47.9991 29.3682L48.0352 33.3682C48.045 34.4726 47.1572 35.3759 46.0528 35.3858L35.5499 35.4786L35.6348 45.9825C35.6438 47.0869 34.7558 47.9899 33.6514 47.9991L29.6514 48.0313C28.5469 48.0403 27.6438 47.1515 27.6348 46.0469L27.5499 35.5508L17.0538 35.6446C15.9493 35.6544 15.0461 34.7667 15.0362 33.6622L15.0001 29.6622C14.9905 28.5578 15.8781 27.6545 16.9825 27.6446L27.4845 27.5508L27.4005 17.0479C27.3917 15.9436 28.2796 15.0414 29.3839 15.0323L33.3839 15.0001Z" fill="white"/>
</svg>
