<svg width="64" height="64" viewBox="0 0 64 64" fill="none" xmlns="http://www.w3.org/2000/svg">
<g clip-path="url(#clip0_80_347)">
<path d="M39.001 14C39.5532 14.0001 40.001 14.4478 40.001 15V39.667H51.001C51.5532 39.6671 52.001 40.1148 52.001 40.667V123C52.001 123.552 51.5532 124 51.001 124H29C28.4478 124 28 123.552 28 123V98.333H13C12.4478 98.3329 12 97.8852 12 97.333V15C12 14.4478 12.4478 14.0001 13 14H39.001ZM16.0996 43.333C16.0445 43.3332 16 43.3785 16 43.4336V46.9004C16.0002 46.9554 16.0446 46.9999 16.0996 47H19.8994C19.9545 47 19.9998 46.9554 20 46.9004V43.4336C20 43.3784 19.9546 43.333 19.8994 43.333H16.0996ZM24.0996 43.333C24.0447 43.3333 24 43.3786 24 43.4336V46.9004C24.0002 46.9552 24.0448 46.9997 24.0996 47H27.9004C27.9554 46.9999 27.9998 46.9554 28 46.9004V43.4336C28 43.3784 27.9555 43.3331 27.9004 43.333H24.0996ZM32.0996 43.333C32.045 43.3334 32.0004 43.378 32 43.4326V46.8994C32 46.9544 32.0447 46.9996 32.0996 47H35.9004C35.9555 46.9999 36 46.9546 36 46.8994V43.4326C35.9996 43.3778 35.9553 43.3332 35.9004 43.333H32.0996ZM40.1006 43.333C40.0454 43.333 40.001 43.3784 40.001 43.4336V46.9004C40.0012 46.9554 40.0455 47 40.1006 47H43.9004C43.9555 47 44.0008 46.9554 44.001 46.9004V43.4336C44.001 43.3784 43.9556 43.333 43.9004 43.333H40.1006ZM16.0996 32.333C16.0445 32.3332 16 32.3785 16 32.4336V35.9004C16.0002 35.9554 16.0446 35.9999 16.0996 36H19.8994C19.9545 36 19.9998 35.9554 20 35.9004V32.4336C20 32.3784 19.9546 32.333 19.8994 32.333H16.0996ZM24.0996 32.333C24.0447 32.3333 24 32.3786 24 32.4336V35.9004C24.0002 35.9552 24.0448 35.9997 24.0996 36H27.9004C27.9554 35.9999 27.9998 35.9554 28 35.9004V32.4336C28 32.3784 27.9555 32.3331 27.9004 32.333H24.0996ZM32.1006 32.333C32.0454 32.3331 32 32.3784 32 32.4336V35.9004C32.0002 35.9554 32.0456 35.9999 32.1006 36H35.9004C35.9555 36 35.9998 35.9554 36 35.9004V32.4336C36 32.3784 35.9556 32.3331 35.9004 32.333H32.1006ZM16.0996 21.333C16.0445 21.3332 16 21.3785 16 21.4336V24.9004C16.0002 24.9553 16.0446 24.9999 16.0996 25H19.8994C19.9545 25 19.9998 24.9554 20 24.9004V21.4336C20 21.3784 19.9546 21.333 19.8994 21.333H16.0996ZM24.0996 21.333C24.0447 21.3333 24 21.3786 24 21.4336V24.9004C24.0002 24.9552 24.0448 24.9997 24.0996 25H27.9004C27.9554 24.9999 27.9998 24.9554 28 24.9004V21.4336C28 21.3784 27.9555 21.3331 27.9004 21.333H24.0996ZM32.1006 21.333C32.0454 21.3331 32 21.3784 32 21.4336V24.9004C32.0002 24.9554 32.0456 24.9999 32.1006 25H35.9004C35.9554 25 35.9998 24.9554 36 24.9004V21.4336C36 21.3784 35.9556 21.3331 35.9004 21.333H32.1006Z" fill="white"/>
</g>
<defs>
<clipPath id="clip0_80_347">
<rect width="64" height="64" fill="white"/>
</clipPath>
</defs>
</svg>
