<svg width="64" height="64" viewBox="0 0 64 64" fill="none" xmlns="http://www.w3.org/2000/svg">
<path d="M49 13C50.1046 13 51 13.8954 51 15V49C51 50.1046 50.1046 51 49 51H15C13.8954 51 13 50.1046 13 49V15C13 13.8954 13.8954 13 15 13H49ZM16.9824 42.5557C16.691 42.5557 16.4543 42.7917 16.4541 43.083C16.4541 43.3745 16.6909 43.6113 16.9824 43.6113H45.29C45.5815 43.6113 45.8184 43.3745 45.8184 43.083C45.8182 42.7917 45.5814 42.5557 45.29 42.5557H16.9824ZM16.9824 38.333C16.6909 38.333 16.4541 38.5698 16.4541 38.8613C16.4542 39.1527 16.691 39.3887 16.9824 39.3887H45.29C45.5815 39.3887 45.8182 39.1527 45.8184 38.8613C45.8184 38.5698 45.5815 38.333 45.29 38.333H16.9824ZM16.9824 34.1113C16.691 34.1113 16.4542 34.3473 16.4541 34.6387C16.4541 34.9302 16.6909 35.167 16.9824 35.167H45.29C45.5815 35.167 45.8184 34.9302 45.8184 34.6387C45.8182 34.3473 45.5814 34.1113 45.29 34.1113H16.9824ZM34.7275 17.2227C34.1753 17.2227 33.7275 17.6704 33.7275 18.2227V28.8887C33.7275 29.441 34.1753 29.8887 34.7275 29.8887H44.8184C45.3706 29.8886 45.8184 29.4409 45.8184 28.8887V18.2227C45.8184 17.6704 45.3706 17.2228 44.8184 17.2227H34.7275ZM16.9824 27.7773C16.6909 27.7773 16.4541 28.0142 16.4541 28.3057C16.4542 28.5971 16.691 28.833 16.9824 28.833H31.4727C31.7639 28.8328 31.9999 28.597 32 28.3057C32 28.0143 31.7639 27.7776 31.4727 27.7773H16.9824ZM16.9824 23.5557C16.691 23.5557 16.4543 23.7917 16.4541 24.083C16.4541 24.3745 16.6909 24.6113 16.9824 24.6113H31.4727C31.7639 24.6111 32 24.3743 32 24.083C31.9998 23.7918 31.7638 23.5559 31.4727 23.5557H16.9824ZM16.9824 19.333C16.6909 19.333 16.4541 19.5698 16.4541 19.8613C16.4542 20.1527 16.691 20.3887 16.9824 20.3887H31.4727C31.7639 20.3884 31.9999 20.1526 32 19.8613C32 19.57 31.7639 19.3332 31.4727 19.333H16.9824Z" fill="white"/>
</svg>
