<svg width="64" height="64" viewBox="0 0 64 64" fill="none" xmlns="http://www.w3.org/2000/svg">
<path d="M31.9111 10.0207C31.967 9.99308 32.033 9.99309 32.0889 10.0207L55.4824 21.5979C55.6719 21.6917 55.605 21.9768 55.3936 21.9768H51.1846C51.295 21.9768 51.3846 22.0666 51.3848 22.177V23.7776C51.3846 23.8879 51.2949 23.9768 51.1846 23.9768H49.7998C49.9102 23.9768 49.9999 24.0666 50 24.177V47.7776C49.9998 47.8879 49.9101 47.9768 49.7998 47.9768H51.7998C51.9102 47.9768 51.9999 48.0666 52 48.177V49.7776C51.9998 49.8879 51.9101 49.9768 51.7998 49.9768H53.7998C53.9102 49.9768 53.9999 50.0666 54 50.177V51.7776C53.9998 51.8879 53.9101 51.9768 53.7998 51.9768H55.7998C55.9102 51.9768 55.9999 52.0666 56 52.177V53.7776C55.9998 53.8879 55.9101 53.9768 55.7998 53.9768H8.2002C8.08986 53.9768 8.00019 53.8879 8 53.7776V52.177C8.00012 52.0666 8.08981 51.9768 8.2002 51.9768H10.2002C10.0899 51.9768 10.0002 51.8879 10 51.7776V50.177C10.0001 50.0666 10.0898 49.9768 10.2002 49.9768H12.2002C12.0899 49.9768 12.0002 49.8879 12 49.7776V48.177C12.0001 48.0666 12.0898 47.9768 12.2002 47.9768H14.2002C14.0899 47.9768 14.0002 47.8879 14 47.7776V24.177C14.0001 24.0666 14.0898 23.9768 14.2002 23.9768H12.8154C12.7051 23.9768 12.6154 23.8879 12.6152 23.7776V22.177C12.6154 22.0666 12.705 21.9768 12.8154 21.9768H8.60645C8.39497 21.9768 8.32808 21.6917 8.51758 21.5979L31.9111 10.0207ZM35.7998 23.9768C35.9102 23.9768 35.9999 24.0666 36 24.177V47.7776C35.9998 47.8879 35.9101 47.9768 35.7998 47.9768H42.2002C42.0899 47.9768 42.0002 47.8879 42 47.7776V24.177C42.0001 24.0666 42.0898 23.9768 42.2002 23.9768H35.7998ZM21.7998 23.9768C21.9102 23.9768 21.9999 24.0666 22 24.177V47.7776C21.9998 47.8879 21.9101 47.9768 21.7998 47.9768H28.2002C28.0899 47.9768 28.0002 47.8879 28 47.7776V24.177C28.0001 24.0803 28.0689 24.0002 28.1602 23.9817L28.2002 23.9768H21.7998Z" fill="white"/>
</svg>
