<svg width="64" height="64" viewBox="0 0 64 64" fill="none" xmlns="http://www.w3.org/2000/svg">
<path d="M38.5 8C42.3849 10.6864 45 15.704 45 21.4535C45 27.6279 41.9852 32.9598 37.6193 35.4649L37.5748 54.2789C37.5725 55.2322 36.8425 56.0024 35.9451 56L28.75 55.9815C27.8526 55.979 27.1275 55.2035 27.1298 54.2502L27.1726 35.8779C22.384 33.5871 19 27.9942 19 21.4535C19 15.704 21.6151 10.6864 25.5 8V22.7093L24.6907 22.7009L25.5 23.1358V23.1796H25.5809L31.835 26.546L38.408 23.1796H38.5V23.1307L39.0491 22.8509L38.5 22.8442V8Z" fill="white"/>
<path d="M22.25 16.275H25.5V23.1796H22.25V16.275Z" fill="white"/>
<path d="M38.5 16.275H41.75V23.1796H38.5V16.275Z" fill="white"/>
</svg>
