<svg width="64" height="64" viewBox="0 0 64 64" fill="none" xmlns="http://www.w3.org/2000/svg">
<path fill-rule="evenodd" clip-rule="evenodd" d="M31.5 13.4615C42.0147 13.4615 50.5385 21.9853 50.5385 32.5C50.5385 43.0147 42.0147 51.5385 31.5 51.5385C20.9853 51.5385 12.4615 43.0147 12.4615 32.5C12.4615 21.9853 20.9853 13.4615 31.5 13.4615ZM31.5 25.5769C27.6765 25.5769 24.5769 28.6765 24.5769 32.5C24.5769 36.3235 27.6765 39.4231 31.5 39.4231C35.3235 39.4231 38.4231 36.3235 38.4231 32.5C38.4231 28.6765 35.3235 25.5769 31.5 25.5769ZM18.5192 20.3846C18.0413 20.3846 17.6538 20.7721 17.6538 21.25C17.6538 21.7279 18.0413 22.1154 18.5192 22.1154C18.9972 22.1154 19.3846 21.7279 19.3846 21.25C19.3846 20.7721 18.9972 20.3846 18.5192 20.3846Z" fill="white"/>
<path fill-rule="evenodd" clip-rule="evenodd" d="M31.5 10C43.9264 10 54 20.0736 54 32.5C54 44.9264 43.9264 55 31.5 55C19.0736 55 9 44.9264 9 32.5C9 20.0736 19.0736 10 31.5 10ZM31.5 11.7308C20.0295 11.7308 10.7308 21.0295 10.7308 32.5C10.7308 43.9705 20.0295 53.2692 31.5 53.2692C42.9705 53.2692 52.2692 43.9705 52.2692 32.5C52.2692 21.0295 42.9705 11.7308 31.5 11.7308Z" fill="white"/>
</svg>
