<svg width="64" height="64" viewBox="0 0 64 64" fill="none" xmlns="http://www.w3.org/2000/svg">
<path d="M31.8019 12.0951C31.9768 11.9683 32.2138 11.9684 32.3888 12.0951L54.9845 28.4955C55.3321 28.748 55.22 29.292 54.8009 29.3871L50.1651 30.4378C50.0287 30.4689 49.9319 30.59 49.9317 30.7298V50.014C49.9317 50.5663 49.484 51.014 48.9317 51.014H35.8204V38.974C35.8202 38.422 35.3724 37.9742 34.8204 37.974H29.3712C28.8191 37.9741 28.3714 38.422 28.3712 38.974V51.014H15.2589C14.7067 51.0139 14.2589 50.5662 14.2589 50.014V30.7298C14.2587 30.59 14.1619 30.4689 14.0255 30.4378L9.38974 29.3871C8.97076 29.292 8.85876 28.7481 9.20615 28.4955L31.8019 12.0951Z" fill="white"/>
</svg>
