<svg width="64" height="64" viewBox="0 0 64 64" fill="none" xmlns="http://www.w3.org/2000/svg">
<path d="M27.9088 27.2306C33.1078 27.2306 37.5699 29.9303 39.486 33.7814C40.6449 35.0338 41.2268 36.7953 40.9039 38.587L39.6286 45.6612C39.0895 48.6504 36.2378 50.5901 33.2594 49.9942L26.9137 48.7247C25.6186 48.6379 24.3795 48.3836 23.2243 47.9864L19.3327 47.2081C16.3541 46.6123 14.3758 43.7063 14.9147 40.7169L15.3385 38.3614C15.3338 38.2402 15.3317 38.1184 15.3317 37.9962C15.3317 36.7329 15.5873 35.5208 16.0543 34.3946L16.1901 33.6437C16.6025 31.3557 18.3694 29.6823 20.5114 29.2901C22.5875 27.9955 25.1435 27.2306 27.9088 27.2306Z" fill="white"/>
<ellipse cx="3.48067" cy="4.36524" rx="3.48067" ry="4.36524" transform="matrix(0.984084 -0.177704 0.162254 0.986749 14 19.8993)" fill="white"/>
<ellipse cx="4.09398" cy="4.91139" rx="4.09398" ry="4.91139" transform="matrix(0.991564 0.12962 -0.118201 0.99299 24.9793 14)" fill="white"/>
<ellipse cx="4.11013" cy="5.15902" rx="4.11013" ry="5.15902" transform="matrix(0.946376 0.323067 -0.296841 0.954927 35.9495 14.6036)" fill="white"/>
<ellipse cx="4.57463" cy="3.9366" rx="4.57463" ry="3.9366" transform="matrix(0.892941 -0.450174 0.417211 0.90881 38.5455 29.3443)" fill="white"/>
</svg>
