<svg width="64" height="64" viewBox="0 0 64 64" fill="none" xmlns="http://www.w3.org/2000/svg">
<path d="M39.1719 17C40.9005 17.0004 42.3444 18.2048 42.7197 19.8193H50.4443C52.4583 19.8196 54.0917 21.4519 54.0918 23.4658V44.3525C54.0918 46.3666 52.4583 47.9997 50.4443 48H12.6475C10.6332 48 9 46.3668 9 44.3525V23.4658C9.00012 21.4517 10.6333 19.8193 12.6475 19.8193H20.3711C20.7463 18.2045 22.1909 17.0001 23.9199 17H39.1719ZM31.5449 25.4551C26.8763 25.4555 23.0923 29.2396 23.0918 33.9082C23.0918 38.5772 26.876 42.3638 31.5449 42.3643C36.2142 42.3643 40 38.5775 40 33.9082C39.9995 29.2393 36.2139 25.4551 31.5449 25.4551ZM31.5459 28.2725C34.6587 28.2725 37.1826 30.7963 37.1826 33.9092C37.1826 37.022 34.6587 39.5458 31.5459 39.5459C28.4331 39.5459 25.9092 37.022 25.9092 33.9092C25.9092 30.7963 28.433 28.2725 31.5459 28.2725ZM46.1338 22.4707C45.1268 22.4708 44.3106 23.287 44.3105 24.2939C44.3105 25.301 45.1268 26.1171 46.1338 26.1172C47.1409 26.1172 47.958 25.3011 47.958 24.2939C47.9579 23.2869 47.1408 22.4707 46.1338 22.4707Z" fill="white"/>
</svg>
