<svg width="64" height="64" viewBox="0 0 64 64" fill="none" xmlns="http://www.w3.org/2000/svg">
<path d="M45.9902 15C47.647 15.0001 48.9902 16.3432 48.9902 18V20.8799C49.1544 20.8512 49.3228 20.833 49.4951 20.833H50.8955C52.5063 20.833 53.8125 22.1392 53.8125 23.75C53.8125 23.7689 53.8109 23.7878 53.8105 23.8066C55.1865 24.0795 56.2236 25.294 56.2236 26.75V41.167C56.2236 41.1948 56.2215 41.2224 56.2207 41.25C56.2215 41.2776 56.2236 41.3052 56.2236 41.333V47C56.2236 48.6568 54.8805 50 53.2236 50H51.9902C50.3334 50 48.9902 48.6569 48.9902 47V44.167H15.2334V47C15.2334 48.6568 13.8902 50 12.2334 50H11C9.34315 50 8 48.6569 8 47V41.333C8 41.3052 8.0012 41.2776 8.00195 41.25C8.0012 41.2224 8 41.1948 8 41.167V26.75C8 25.2943 9.03665 24.0798 10.4121 23.8066C10.4118 23.7878 10.4111 23.7689 10.4111 23.75C10.4111 22.1392 11.7173 20.833 13.3281 20.833H14.7285C14.9009 20.833 15.0692 20.8512 15.2334 20.8799V18C15.2334 16.3432 16.5766 15.0001 18.2334 15H45.9902ZM11.8691 32.5C11.064 32.5002 10.4113 33.1529 10.4111 33.958C10.4111 34.7633 11.0639 35.4168 11.8691 35.417H18.5977C19.403 35.4169 20.0557 34.7634 20.0557 33.958C20.0555 33.1528 19.4029 32.5 18.5977 32.5H11.8691ZM45.626 32.5C44.8207 32.5001 44.1681 33.1528 44.168 33.958C44.168 34.7634 44.8206 35.4169 45.626 35.417H52.3545C53.1597 35.4168 53.8125 34.7633 53.8125 33.958C53.8123 33.1529 53.1596 32.5002 52.3545 32.5H45.626ZM20.6445 17.917C18.9878 17.9171 17.6445 19.2602 17.6445 20.917V23.75H46.5791V20.917C46.5791 19.2602 45.2359 17.9171 43.5791 17.917H20.6445Z" fill="white"/>
</svg>
