<svg width="64" height="64" viewBox="0 0 64 64" fill="none" xmlns="http://www.w3.org/2000/svg">
<path d="M32.5515 30.4583C33.6764 30.4583 34.5883 31.3724 34.5883 32.5C34.5883 33.6276 33.6764 34.5417 32.5515 34.5417C31.427 34.5412 30.5147 33.6273 30.5147 32.5C30.5147 31.3727 31.427 30.4588 32.5515 30.4583Z" fill="white"/>
<path fill-rule="evenodd" clip-rule="evenodd" d="M32.5515 8C35.4875 8 38.0593 12.6708 39.4932 19.6758C40.6207 19.1795 41.7094 18.7568 42.7452 18.4077C42.7389 18.3421 42.7353 18.2756 42.7353 18.2083C42.7353 17.081 43.6475 16.1671 44.772 16.1667C45.6154 16.1667 46.3403 16.6804 46.6496 17.4128C49.4033 16.9829 51.4611 17.3626 52.4218 18.6849C54.3476 21.3357 51.3301 27.0332 45.3468 33.0084C49.2862 36.8029 51.7475 40.4426 52.0637 43.0872C52.5816 43.4573 52.919 44.0638 52.919 44.75C52.919 45.8776 52.0071 46.7917 50.8823 46.7917C50.5874 46.7916 50.3078 46.7273 50.0548 46.6142C47.846 47.5027 44.0368 47.0458 39.4653 45.4518C38.0265 52.3857 35.4696 57 32.5515 57C29.7864 56.9992 27.345 52.8553 25.8724 46.5205C19.6265 49.2761 14.5891 49.8438 12.908 47.5314C11.7139 45.8877 12.4201 43.0723 14.5549 39.7455C14.3439 39.4239 14.2207 39.0387 14.2207 38.625C14.2207 37.4977 15.133 36.5838 16.2575 36.5833C16.4532 36.5833 16.6432 36.6114 16.8224 36.6631C17.6076 35.7098 18.4839 34.7336 19.4439 33.7481C12.4356 27.836 8.60832 21.8741 10.4675 18.962C12.1694 16.2971 18.1801 16.8982 25.5422 20.0127C26.9616 12.8214 29.569 8.00086 32.5515 8ZM33.0328 42.6944C31.3579 43.7363 29.71 44.6632 28.118 45.4618C29.1018 51.2065 30.7198 54.9572 32.5515 54.9583C34.4772 54.9583 36.1636 50.8135 37.1282 44.5646C35.8044 44.0227 34.433 43.3989 33.0328 42.6944ZM21.421 35.3492C20.2529 36.4535 19.2032 37.528 18.2903 38.5492C18.2912 38.5744 18.2942 38.5996 18.2942 38.625C18.2942 39.6517 17.5383 40.497 16.5538 40.6407C14.5959 43.2257 13.7935 45.2833 14.5529 46.3291C15.6687 47.865 19.888 46.8508 25.3672 44.0562C25.014 42.0741 24.7489 39.929 24.5875 37.668C23.4836 36.9058 22.4263 36.1304 21.421 35.3492ZM43.5547 34.7231C42.6058 35.5952 41.5996 36.469 40.5394 37.333C40.4059 39.3392 40.1905 41.2566 39.9049 43.0533C43.9319 44.722 47.165 45.4459 48.8594 44.9773C48.8512 44.9026 48.8455 44.8269 48.8455 44.75C48.8455 43.9079 49.3546 43.1839 50.0807 42.8718C49.6681 40.9431 47.2652 37.9896 43.5547 34.7231ZM27.392 39.5103C27.4819 40.6428 27.5958 41.7351 27.7261 42.7801C28.5708 42.3024 29.4403 41.7955 30.3218 41.2489C29.3516 40.7038 28.3732 40.124 27.392 39.5103ZM37.4604 39.7096C36.8303 40.1696 36.1979 40.6118 35.5688 41.0415C36.215 41.3699 36.8489 41.6825 37.4703 41.9746C37.5598 41.1811 37.6421 40.3629 37.709 39.5222C37.6256 39.5836 37.5443 39.6484 37.4604 39.7096ZM32.4461 26.6262C31.4635 27.2856 30.4656 27.9764 29.4665 28.7058C28.6699 29.2873 27.8972 29.8764 27.1454 30.4623C27.1308 31.1335 27.1195 31.8131 27.1195 32.5C27.1195 33.7418 27.1502 34.9597 27.1971 36.1467C27.5037 36.3486 27.8093 36.5561 28.122 36.7568C29.7274 37.7871 31.321 38.7327 32.8678 39.596C33.8547 38.9339 34.8595 38.2412 35.8632 37.5085C36.564 36.9969 37.2455 36.4786 37.9119 35.9633C37.9542 34.8343 37.9835 33.6779 37.9835 32.5C37.9835 31.7539 37.9729 31.0163 37.9557 30.2889C36.6968 29.3835 35.368 28.4762 33.9796 27.5852C33.4672 27.2564 32.9544 26.9387 32.4461 26.6262ZM24.4045 32.6834C24.0727 32.9646 23.7509 33.2494 23.4319 33.5288C23.7599 33.77 24.0901 34.0153 24.4284 34.2566C24.4161 33.7365 24.4058 33.212 24.4045 32.6834ZM40.6985 32.5C40.6985 32.9105 40.6952 33.3186 40.6886 33.7242C40.9718 33.486 41.2498 33.2475 41.5239 33.0104C41.2531 32.7912 40.9773 32.5711 40.6965 32.3505C40.6966 32.4003 40.6985 32.4501 40.6985 32.5ZM25.0987 22.5947C18.4962 19.4269 13.321 18.2792 12.182 20.0626C10.9512 21.992 14.8007 26.786 21.3096 31.9178C22.3015 30.9875 23.3636 30.0581 24.4841 29.1344C24.589 26.8378 24.7973 24.6425 25.0987 22.5947ZM50.7749 19.8871C50.1477 19.0239 48.5405 18.9657 46.2797 19.5761C45.907 19.9884 45.3707 20.25 44.772 20.25C44.6251 20.2499 44.4824 20.2318 44.3444 20.2021C43.0112 20.6955 41.5281 21.3585 39.9387 22.17C40.2654 24.2799 40.4955 26.5526 40.611 28.9371C41.6132 29.7137 42.5638 30.4963 43.4573 31.2778C48.9704 26.16 52.0391 21.6274 50.7749 19.8871ZM27.5412 23.8249C27.4397 24.8255 27.3604 25.8632 27.2945 26.9313C27.4848 26.7896 27.6764 26.6474 27.8694 26.5066C28.5352 26.0206 29.1999 25.5491 29.8643 25.097C29.079 24.6499 28.303 24.2266 27.5412 23.8249ZM37.524 23.478C36.6911 23.9505 35.8346 24.4521 34.9662 24.9913C35.1248 25.0914 35.2848 25.1905 35.4435 25.2924C36.2523 25.8114 37.0394 26.3417 37.8045 26.8754C37.7314 25.7032 37.6398 24.5679 37.524 23.478ZM32.5515 10.0417C30.5621 10.0429 28.8274 14.4674 27.8813 21.0655C29.358 21.7697 30.8747 22.5639 32.4083 23.4461C34.0325 22.4402 35.6323 21.5451 37.178 20.7684C36.2226 14.3342 34.5112 10.0417 32.5515 10.0417Z" fill="white"/>
</svg>
