<svg width="64" height="64" viewBox="0 0 64 64" fill="none" xmlns="http://www.w3.org/2000/svg">
<path d="M17.6139 17.3H45.4139C46.4805 17.3 47.2639 17.4333 47.7639 17.7C48.2639 17.9333 48.5972 18.3167 48.7639 18.85C48.9305 19.3833 49.0139 20.0833 49.0139 20.95C49.0139 21.8167 48.9305 22.5167 48.7639 23.05C48.5972 23.55 48.3139 23.9 47.9139 24.1C47.3139 24.4 46.4639 24.55 45.3639 24.55H35.8139V49.7C35.8139 50.4667 35.7805 51.0333 35.7139 51.4C35.6805 51.7667 35.5305 52.2 35.2639 52.7C35.0305 53.1667 34.5972 53.5 33.9639 53.7C33.3305 53.9 32.4972 54 31.4639 54C30.4305 54 29.5972 53.9 28.9639 53.7C28.3639 53.5 27.9305 53.1667 27.6639 52.7C27.4305 52.2 27.2805 51.7667 27.2139 51.4C27.1805 51 27.1639 50.4167 27.1639 49.65V24.55H17.5639C16.4972 24.55 15.7139 24.4333 15.2139 24.2C14.7139 23.9333 14.3805 23.5333 14.2139 23C14.0472 22.4667 13.9639 21.7667 13.9639 20.9C13.9639 20.0333 14.0472 19.35 14.2139 18.85C14.3805 18.3167 14.6639 17.95 15.0639 17.75C15.6639 17.45 16.5139 17.3 17.6139 17.3Z" fill="white"/>
</svg>
