<svg width="64" height="64" viewBox="0 0 64 64" fill="none" xmlns="http://www.w3.org/2000/svg">
<path d="M46.584 54.8252H18.4238V56.4219C18.4237 56.6979 18.1999 56.9219 17.9238 56.9219H11.3848C11.1087 56.9219 10.8849 56.6979 10.8848 56.4219V54.8252H9V8.73637H46.584V54.8252ZM51.2461 7.12699C51.3125 6.95721 51.5533 6.9578 51.6191 7.12797L53.5518 12.127C53.5576 12.1422 53.5605 12.1577 53.5625 12.1729C53.8238 12.7505 53.9789 13.4399 53.9951 14.1827C53.9981 14.1964 54 14.2109 54 14.2256L53.9551 54.4385C53.9547 54.5488 53.8652 54.6379 53.7549 54.6377L49.0049 54.6319C48.8947 54.6316 48.8058 54.5418 48.8057 54.4317L48.8496 14.2188C48.8496 14.2048 48.8517 14.1909 48.8545 14.1778C48.8721 13.4359 49.0283 12.7476 49.29 12.1709C49.292 12.1544 49.2963 12.1377 49.3027 12.1211L51.2461 7.12699ZM13.1699 38.0664C12.9492 38.0664 12.7699 38.2462 12.7695 38.4668V41.8565C12.7695 42.0774 12.949 42.2569 13.1699 42.2569H42.5264C42.7473 42.2569 42.9268 42.0774 42.9268 41.8565V38.4668C42.9264 38.2462 42.7471 38.0664 42.5264 38.0664H13.1699ZM13.1699 27.5918C12.9492 27.5918 12.7699 27.7716 12.7695 27.9922V31.3819C12.7695 31.6028 12.949 31.7823 13.1699 31.7823H42.5264C42.7473 31.7823 42.9268 31.6028 42.9268 31.3819V27.9922C42.9264 27.7716 42.7471 27.5918 42.5264 27.5918H13.1699ZM13.1699 17.1172C12.9492 17.1172 12.7699 17.297 12.7695 17.5176V20.9073C12.7695 21.1282 12.949 21.3077 13.1699 21.3077H42.5264C42.7473 21.3077 42.9268 21.1282 42.9268 20.9073V17.5176C42.9264 17.297 42.7471 17.1172 42.5264 17.1172H13.1699Z" fill="white"/>
</svg>
