<svg width="24" height="24" viewBox="0 0 24 24" fill="none" xmlns="http://www.w3.org/2000/svg">
<path d="M18 22H6C3.79086 22 2 20.2091 2 18V9.26366C2 7.82418 2.77346 6.49571 4.0253 5.78507L10.3869 2.17374C11.6613 1.45032 13.2292 1.48163 14.4737 2.25536L20.112 5.76095C21.2861 6.49092 22 7.77542 22 9.15792V18C22 20.2091 20.2091 22 18 22Z" stroke="black" stroke-width="2" stroke-linejoin="round"/>
<path d="M9 23V16C9 14.3431 10.3431 13 12 13C13.6569 13 15 14.3431 15 16V23" stroke="black" stroke-width="2" stroke-linejoin="round"/>
<path d="M18 22H6C3.79086 22 2 20.2091 2 18V9.26366C2 7.82418 2.77346 6.49571 4.0253 5.78507L10.3869 2.17374C11.6613 1.45032 13.2292 1.48163 14.4737 2.25536L20.112 5.76095C21.2861 6.49092 22 7.77542 22 9.15792V18C22 20.2091 20.2091 22 18 22Z" stroke="black" stroke-width="2" stroke-linejoin="round"/>
<path d="M9 23V16C9 14.3431 10.3431 13 12 13C13.6569 13 15 14.3431 15 16V23" stroke="black" stroke-width="2" stroke-linejoin="round"/>
</svg>
